# xmcd
#
# Track frame offsets: 
#        150
#        16365
#        31170
#        42970
#        50892
#        64745
#        84967
#        94667
#        105467
#        132170
#        146435
#        157727
#        169950
#        185072
#
# Disc length: 2695 seconds
#
# Revision: 2
# Processed by: cddbd v1.5.2PL0 Copyright (c) Steve Scherf et al.
# Submitted via: ExactAudioCopy v1.1
#
DISCID=b20a850e
DTITLE=John Mayall and The Bluesbreakers - Blues Breakers With Eric Clap
DTITLE=ton [2001 Remaster]
DYEAR=1966
DGENRE=Blues Rock
TTITLE0=All Your Love
TTITLE1=Hideaway
TTITLE2=Little Girl
TTITLE3=Another Man
TTITLE4=Double Crossing Time
TTITLE5=What'd I Say
TTITLE6=Key To Love
TTITLE7=Parchman Farm
TTITLE8=Have You Heard
TTITLE9=Ramblin' On My Mind
TTITLE10=Steppin' Out
TTITLE11=It Ain't Right
TTITLE12=John Mayall and Eric Clapton - Lonely Years [Bonus Track]
TTITLE13=John Mayall and Eric Clapton - Bernard Jenkins [Bonus Track]
EXTD=Remastered/Reissued - 2001\nTracks 1-12 originally released as De
EXTD=cca SLK 4804. \nTracks 13-14 released 1966 as a single on Purdah 
EXTD=Records.
EXTT0=
EXTT1=
EXTT2=
EXTT3=
EXTT4=
EXTT5=
EXTT6=
EXTT7=
EXTT8=
EXTT9=
EXTT10=
EXTT11=
EXTT12=
EXTT13=
PLAYORDER=
